<svg xmlns="http://www.w3.org/2000/svg" viewBox="0 0 48 48" width="48" height="48">
  <defs>
    <linearGradient id="paletteBody" x1="0%" y1="0%" x2="100%" y2="100%">
      <stop offset="0%" stop-color="#F0E8D8"/>
      <stop offset="100%" stop-color="#C8B890"/>
    </linearGradient>
    <filter id="paletteShadow">
      <feDropShadow dx="0" dy="2" stdDeviation="2" flood-color="#3A2800" flood-opacity="0.4"/>
    </filter>
  </defs>
  <!-- Palette shape -->
  <path d="M24 4 C10 4 4 14 4 24 C4 34 12 44 24 44 C30 44 34 40 34 36 C34 33 32 31 32 29 C32 27 34 26 36 26 C40 26 44 23 44 19 C44 11 35 4 24 4 Z" fill="url(#paletteBody)" filter="url(#paletteShadow)"/>
  <!-- Shine -->
  <path d="M24 5 C14 5 6 13 5 22 C8 14 16 7 24 7 Z" fill="#fff" opacity="0.4"/>
  <!-- Color blobs -->
  <circle cx="15" cy="16" r="4.5" fill="#F05050"/>
  <circle cx="24" cy="11" r="4.5" fill="#FFB800"/>
  <circle cx="33" cy="16" r="4.5" fill="#50C050"/>
  <circle cx="36" cy="25" r="4.5" fill="#5080F0"/>
  <circle cx="13" cy="27" r="4.5" fill="#C050C0"/>
  <!-- Thumb hole -->
  <ellipse cx="29" cy="36" rx="4" ry="3" fill="#B0A080"/>
</svg>
