<svg xmlns="http://www.w3.org/2000/svg" viewBox="0 0 48 48" width="48" height="48">
  <defs>
    <linearGradient id="fileBody" x1="0%" y1="0%" x2="0%" y2="100%">
      <stop offset="0%" stop-color="#E8EEF8"/>
      <stop offset="100%" stop-color="#B0BEEF"/>
    </linearGradient>
    <linearGradient id="fileCorner" x1="0%" y1="0%" x2="100%" y2="100%">
      <stop offset="0%" stop-color="#A8B8D8"/>
      <stop offset="100%" stop-color="#7088B8"/>
    </linearGradient>
    <filter id="fileShadow">
      <feDropShadow dx="0" dy="2" stdDeviation="2" flood-color="#1A2848" flood-opacity="0.35"/>
    </filter>
  </defs>
  <!-- File body -->
  <path d="M8 6 L8 42 Q8 44 10 44 L38 44 Q40 44 40 42 L40 16 L30 6 Z" fill="url(#fileBody)" filter="url(#fileShadow)"/>
  <!-- Folded corner -->
  <path d="M30 6 L40 16 L30 16 Z" fill="url(#fileCorner)"/>
  <!-- Page lines -->
  <rect x="13" y="22" width="18" height="2.5" rx="1.2" fill="#8898C0" opacity="0.55"/>
  <rect x="13" y="27" width="22" height="2.5" rx="1.2" fill="#8898C0" opacity="0.45"/>
  <rect x="13" y="32" width="15" height="2.5" rx="1.2" fill="#8898C0" opacity="0.45"/>
  <rect x="13" y="37" width="20" height="2.5" rx="1.2" fill="#8898C0" opacity="0.35"/>
  <!-- Shine top-left -->
  <path d="M8 6 L30 6 L30 10 L12 10 L8 14 Z" fill="#fff" opacity="0.2"/>
</svg>
