<svg xmlns="http://www.w3.org/2000/svg" viewBox="0 0 48 48" width="48" height="48">
  <defs>
    <linearGradient id="browseFolder" x1="0%" y1="0%" x2="0%" y2="100%">
      <stop offset="0%" stop-color="#F0B840"/>
      <stop offset="100%" stop-color="#C07800"/>
    </linearGradient>
    <linearGradient id="browseMag" x1="0%" y1="0%" x2="100%" y2="100%">
      <stop offset="0%" stop-color="#80C0F0"/>
      <stop offset="100%" stop-color="#3080C0"/>
    </linearGradient>
    <filter id="browseShadow">
      <feDropShadow dx="0" dy="2" stdDeviation="1.5" flood-color="#3A2800" flood-opacity="0.4"/>
    </filter>
  </defs>
  <!-- Folder -->
  <path d="M4 18 L4 38 Q4 42 8 42 L36 42 Q40 42 40 38 L40 18 Z" fill="url(#browseFolder)" filter="url(#browseShadow)"/>
  <path d="M4 18 L4 15 Q4 12 7 12 L18 12 Q21 12 22 15 L23 18 Z" fill="#E8A430"/>
  <path d="M4 22 L4 38 Q4 42 8 42 L36 42 Q40 42 40 38 L40 22 Z" fill="#F5C858"/>
  <rect x="4" y="22" width="36" height="5" fill="#fff" opacity="0.13"/>
  <!-- Magnifier overlay -->
  <circle cx="34" cy="14" r="10" fill="url(#browseMag)" filter="url(#browseShadow)"/>
  <circle cx="34" cy="14" r="8" fill="#C0E0F8"/>
  <circle cx="34" cy="14" r="5.5" fill="url(#browseMag)"/>
  <ellipse cx="31" cy="11" rx="2.5" ry="1.5" fill="#fff" opacity="0.5" transform="rotate(-30 31 11)"/>
  <line x1="41" y1="21" x2="46" y2="26" stroke="#7060A0" stroke-width="3.5" stroke-linecap="round"/>
</svg>
